<svg width="26" height="26" viewBox="0 0 26 26" fill="none" xmlns="http://www.w3.org/2000/svg">
<path opacity="0.4" d="M18.0555 2.16666H7.94443C4.25629 2.16666 2.16666 4.25629 2.16666 7.94443V18.0555C2.16666 21.7341 4.24666 23.8333 7.94443 23.8333H18.0555C21.7437 23.8333 23.8333 21.7341 23.8333 18.0555V7.94443C23.8333 4.25629 21.7437 2.16666 18.0555 2.16666Z" fill="#737373"/>
<path d="M16.5971 13.7674H13.812V16.5284C13.812 16.9729 13.4484 17.3333 13 17.3333C12.5515 17.3333 12.188 16.9729 12.188 16.5284V13.7674H9.40283C8.98453 13.7244 8.66666 13.375 8.66666 12.9581C8.66666 12.5412 8.98453 12.1918 9.40283 12.1488H12.1793V9.39645C12.2226 8.98177 12.5751 8.66666 12.9956 8.66666C13.4162 8.66666 13.7687 8.98177 13.812 9.39645V12.1488H16.5971C17.0154 12.1918 17.3333 12.5412 17.3333 12.9581C17.3333 13.375 17.0154 13.7244 16.5971 13.7674V13.7674Z" fill="#737373"/>
</svg>
